<svg width="1200" height="1400" viewBox="0 0 1200 1400" fill="none" xmlns="http://www.w3.org/2000/svg">
  <rect width="1200" height="1400" fill="#0A0A0A"/>
  <circle cx="930" cy="250" r="280" fill="#D4AF37" fill-opacity="0.18"/>
  <circle cx="340" cy="1080" r="310" fill="#D4AF37" fill-opacity="0.12"/>
  <path d="M690 150C575 204 452 311 374 449C280 618 256 821 340 979C417 1122 562 1210 720 1218C880 1227 1040 1156 1119 1012" stroke="#F3DD8D" stroke-opacity="0.35" stroke-width="3"/>
  <path d="M173 202C292 133 451 143 568 228C702 326 782 492 798 663C814 833 764 1020 664 1126C601 1191 513 1234 420 1242" stroke="#D4AF37" stroke-opacity="0.22" stroke-width="2" stroke-dasharray="10 12"/>
  <rect x="120" y="188" width="302" height="880" rx="151" stroke="#F3DD8D" stroke-opacity="0.22" stroke-width="2"/>
  <rect x="710" y="316" width="285" height="738" rx="142.5" stroke="#D4AF37" stroke-opacity="0.22" stroke-width="2"/>
</svg>
